<svg xmlns="http://www.w3.org/2000/svg" width="112.105" height="213.995" viewBox="0 0 112.105 213.995">
  <g id="Group_37" data-name="Group 37" transform="translate(-1579 -484)">
    <g id="Group_28" data-name="Group 28" transform="translate(71 284.141)">
      <g id="Group_27" data-name="Group 27" transform="translate(1508 199.859)">
        <g id="Group_11" data-name="Group 11" transform="translate(0 0)">
          <g id="Rectangle_16" data-name="Rectangle 16" transform="translate(33 107)" fill="#f2f2f2" stroke="#4e7259" stroke-width="1">
            <rect width="15" height="47" stroke="none"/>
            <rect x="0.5" y="0.5" width="14" height="46" fill="none"/>
          </g>
          <g id="Group_10" data-name="Group 10" transform="translate(0 79.251)">
            <g id="Subtraction_2" data-name="Subtraction 2" transform="translate(0 -0.251)" fill="#f2f2f2">
              <path d="M 38 39.5 C 32.94115829467773 39.5 28.03326988220215 38.45687103271484 23.41263961791992 36.39960098266602 C 18.9463005065918 34.41070175170898 14.93575954437256 31.56440925598145 11.49244022369385 27.9398307800293 C 8.046369552612305 24.31131935119629 5.340519905090332 20.08672904968262 3.450129985809326 15.38344955444336 C 1.55375349521637 10.66337108612061 0.5629820227622986 5.658822536468506 0.5029104948043823 0.5000100135803223 L 2.298635959625244 0.5000100135803223 C 6.291333198547363 6.170307636260986 11.55784606933594 10.87915325164795 17.54331970214844 14.12732028961182 C 20.63451957702637 15.80496025085449 23.9161205291748 17.09786033630371 27.29693031311035 17.97013092041016 C 30.77787017822266 18.86825942993164 34.37889862060547 19.32365989685059 38 19.32365989685059 C 41.62117004394531 19.32365989685059 45.22235870361328 18.86827087402344 48.70352172851562 17.97013092041016 C 52.08441925048828 17.09783935546875 55.36616134643555 15.80492973327637 58.45756912231445 14.12732028961182 C 64.443115234375 10.87898540496826 69.70962524414062 6.170144557952881 73.70225524902344 0.5000010132789612 L 75.49709320068359 0.5000080466270447 C 75.43701934814453 5.660063743591309 74.44625854492188 10.66467952728271 72.54985809326172 15.383469581604 C 70.65860748291016 20.08869934082031 67.95278930664062 24.31328010559082 64.507568359375 27.9398307800293 C 61.06393051147461 31.56588935852051 57.05379867553711 34.41213989257812 52.58853912353516 36.39957046508789 C 47.96762084960938 38.45687103271484 43.05934143066406 39.5 38 39.5 Z" stroke="none"/>
              <path d="M 38 39 C 42.98883438110352 39 47.82868957519531 37.9714241027832 52.38521194458008 35.94278717041016 C 56.79024505615234 33.98215484619141 60.74678802490234 31.17374420166016 64.14506530761719 27.59544372558594 C 67.546630859375 24.01486587524414 70.21832275390625 19.84341049194336 72.08592224121094 15.1970329284668 C 73.89706420898438 10.69037342071533 74.8719482421875 5.919025897979736 74.98820495605469 1.000006675720215 L 73.96080017089844 1.000002264976501 C 69.94256591796875 6.638134479522705 64.67415618896484 11.32248783111572 58.6960563659668 14.5667781829834 C 55.56877899169922 16.26385498046875 52.24882125854492 17.57180023193359 48.82843399047852 18.45426750183105 C 45.30649948120117 19.36293411254883 41.66328811645508 19.82365608215332 38 19.82365608215332 C 34.33677673339844 19.82365608215332 30.69371032714844 19.36292266845703 27.17202186584473 18.45426750183105 C 23.75167846679688 17.57181167602539 20.4318675994873 16.26386642456055 17.30483245849609 14.5667781829834 C 11.32682228088379 11.32266044616699 6.058388710021973 6.638298034667969 2.04008674621582 1.000011086463928 L 1.011801242828369 1.000011086463928 C 1.128059148788452 5.917952537536621 2.102947473526001 10.68916416168213 3.914055585861206 15.19698905944824 C 5.780822277069092 19.84146690368652 8.452555656433105 24.0129451751709 11.85494422912598 27.59545516967773 C 15.25286674499512 31.17225646972656 19.20987701416016 33.98073196411133 23.61601066589355 35.94283294677734 C 28.17221069335938 37.9714241027832 33.01168823242188 39 38 39 M 38 40 C 32.87073516845703 40 27.89432144165039 38.94233322143555 23.20926666259766 36.85637664794922 C 18.68280029296875 34.84069061279297 14.61866664886475 31.95658874511719 11.12994480133057 28.28420066833496 C 7.640110969543457 24.60962295532227 4.900199890136719 20.33192253112793 2.986200094223022 15.56992244720459 C 1.004822254180908 10.6382999420166 0 5.399822235107422 0 1.11111112346407e-05 L 2.559000015258789 1.11111112346407e-05 C 6.52506685256958 5.702499866485596 11.78863334655762 10.43551063537598 17.78179931640625 13.68785572052002 C 20.83713340759277 15.34603309631348 24.0804443359375 16.62388801574707 27.42184448242188 17.48597717285156 C 30.86196708679199 18.37358856201172 34.4211540222168 18.82365608215332 38 18.82365608215332 C 41.57906723022461 18.82365608215332 45.13825607299805 18.37358856201172 48.57860946655273 17.48597717285156 C 51.91999816894531 16.62388801574707 55.16353225708008 15.3460111618042 58.21908950805664 13.68785572052002 C 64.21181488037109 10.435622215271 69.47582244873047 5.702433109283447 73.44188690185547 0 L 76 1.11111112346407e-05 C 76 5.402100086212158 74.99496459960938 10.64017772674561 73.01380157470703 15.56992244720459 C 71.09892272949219 20.33393287658691 68.35900115966797 24.61164474487305 64.87006378173828 28.28420066833496 C 61.38090133666992 31.95820045471191 57.31697845458984 34.84228897094727 52.79184341430664 36.85637664794922 C 48.1065673828125 38.94233322143555 43.12993240356445 40 38 40 Z" stroke="none" fill="#4e7259"/>
            </g>
          </g>
          <g id="Group_26" data-name="Group 26" transform="translate(17.111 0)">
            <g id="Rectangle_14" data-name="Rectangle 14" transform="translate(-0.111)" fill="#f2f2f2" stroke="#4e7259" stroke-width="1">
              <rect width="41" height="94" rx="12" stroke="none"/>
              <rect x="0.5" y="0.5" width="40" height="93" rx="11.5" fill="none"/>
            </g>
          </g>
          <g id="Rectangle_31" data-name="Rectangle 31" transform="translate(15 154) rotate(-90)" fill="#f2f2f2" stroke="#4e7259" stroke-width="1">
            <rect width="15" height="53" stroke="none"/>
            <rect x="0.5" y="0.5" width="14" height="52" fill="none"/>
          </g>
        </g>
        <line id="Line_12" data-name="Line 12" x2="13.338" transform="translate(43.35 33.287)" fill="none" stroke="#4e7259" stroke-width="3"/>
        <line id="Line_13" data-name="Line 13" x2="13.338" transform="translate(43.35 26.618)" fill="none" stroke="#4e7259" stroke-width="3"/>
        <line id="Line_14" data-name="Line 14" x2="13.338" transform="translate(43.35 19.949)" fill="none" stroke="#4e7259" stroke-width="3"/>
        <line id="Line_15" data-name="Line 15" x2="13.338" transform="translate(43.35 13.279)" fill="none" stroke="#4e7259" stroke-width="3"/>
        <line id="Line_16" data-name="Line 16" x2="13.338" transform="translate(43.35 59.964)" fill="none" stroke="#4e7259" stroke-width="3"/>
        <line id="Line_17" data-name="Line 17" x2="13.338" transform="translate(43.35 53.295)" fill="none" stroke="#4e7259" stroke-width="3"/>
        <line id="Line_18" data-name="Line 18" x2="13.338" transform="translate(43.35 46.626)" fill="none" stroke="#4e7259" stroke-width="3"/>
        <line id="Line_19" data-name="Line 19" x2="13.338" transform="translate(43.35 39.956)" fill="none" stroke="#4e7259" stroke-width="3"/>
        <path id="Path_11" data-name="Path 11" d="M10,0" transform="translate(46.688 86.641)" fill="#f2f2f2" stroke="#4e7259" stroke-width="3"/>
        <line id="Line_21" data-name="Line 21" x2="13.338" transform="translate(43.35 79.972)" fill="none" stroke="#4e7259" stroke-width="3"/>
        <line id="Line_22" data-name="Line 22" x2="13.338" transform="translate(43.35 73.302)" fill="none" stroke="#4e7259" stroke-width="3"/>
        <line id="Line_23" data-name="Line 23" x2="13.338" transform="translate(43.35 66.633)" fill="none" stroke="#4e7259" stroke-width="3"/>
      </g>
    </g>
    <g id="icon" transform="translate(1450.18 539.999)">
      <g id="Group_14" data-name="Group 14" transform="translate(128.82 10.001)">
        <path id="Path_1" data-name="Path 1" d="M232.756-500.784A31.312,31.312,0,0,0,206.6-477.851a34.137,34.137,0,0,0,.08,15.76c1.21,4.313,2.338,5.643,4.917,5.643a4.034,4.034,0,0,0,4.192-2.7c.524-1.249.524-1.652-.282-4.473a22.274,22.274,0,0,1,2.418-18.1,21.929,21.929,0,0,1,29.261-7.658,22.558,22.558,0,0,1,11.165,16.444,17.123,17.123,0,0,1-.242,7.134c-.645,3.224-.645,3.748-.082,5.038a4.565,4.565,0,0,0,3.99,2.7,5.216,5.216,0,0,0,4.192-3.345c2.015-6.006,1.613-13.341-.968-20.112A31.146,31.146,0,0,0,232.756-500.784Z" transform="translate(-194.104 500.999)" fill="#52171f"/>
        <path id="Path_2" data-name="Path 2" d="M166.908-386.266a13.459,13.459,0,0,0-8.3,7.658c-.886,1.894-.886,2.1-1.089,32.284l-.2,30.43-2.942-5.159c-3.386-5.844-4.917-7.578-8.1-9.069a10.323,10.323,0,0,0-5.28-1.048,10.028,10.028,0,0,0-5.724,1.33c-4.434,2.176-6.448,5.8-6.448,11.568,0,4.635.927,7.658,6.006,19.951,6.77,16.283,14.469,30.026,21.32,38.047,3.224,3.83,4.675,4.594,7.013,3.91a4.086,4.086,0,0,0,3.063-4.594c-.121-1.128-.766-2.176-2.338-4.031-7.82-8.907-16.082-24.264-23.981-44.618a24.064,24.064,0,0,1-2.015-7.738c-.2-2.9-.162-3.144.806-4.111a3.167,3.167,0,0,1,4.434-.242c.565.444,4.071,6.127,7.779,12.616,3.748,6.448,7.376,12.374,8.061,13.058a3.95,3.95,0,0,0,5.885.162l1.33-1.169.2-39.057c.2-42.522.08-39.983,2.539-41.434a4.8,4.8,0,0,1,5.683.968l1.249,1.249.2,27.529c.242,30.673.08,29.14,3.023,30.108a4.33,4.33,0,0,0,5.079-1.773c.725-1.169.766-2.135.766-13.261,0-12.857.08-13.582,2.1-14.954,1.169-.847,4.111-.806,5.4,0,2.1,1.41,2.176,1.935,2.176,15.76,0,11.93.041,12.9.766,14.067a4.369,4.369,0,0,0,7.336,0c.686-1.128.766-2.1.766-11.044,0-10.761.162-11.609,2.418-12.777a4.988,4.988,0,0,1,6.651,1.814c.483.967.6,2.983.6,10.882,0,10.681.162,11.527,2.418,12.7a3.823,3.823,0,0,0,4.031,0c2.055-1.048,2.418-2.338,2.418-8.585,0-5.16.08-5.724.927-6.974a6.07,6.07,0,0,1,2.378-1.894c2.137-.846,4.192.242,5.521,2.862.967,1.9.967,2.176,1.169,14.106.362,22.168-1.29,39.136-4.8,49.575-1.531,4.675-1.531,5.644.2,7.376a4.128,4.128,0,0,0,6.69-.725c2.661-4.352,5.361-18.258,6.45-33.05.483-7.093.524-31.68.039-35.469-1.329-10.117-10.358-16.485-18.581-13.058-.483.2-.766-.121-1.128-1.128-.847-2.3-3.869-5.32-6.772-6.731a9.509,9.509,0,0,0-5.521-1.29,18.721,18.721,0,0,0-4.716.645c-1.652.6-1.814.6-2.176-.041a20.348,20.348,0,0,0-2.137-2.539,13.817,13.817,0,0,0-12.7-3.869l-1.894.323-.121-10c-.121-9.834-.121-10.036-1.169-12.252a13.546,13.546,0,0,0-11.809-7.9A11.841,11.841,0,0,0,166.908-386.266Z" transform="translate(-128.82 404.134)" fill="#52171f"/>
      </g>
    </g>
  </g>
</svg>
