<svg xmlns="http://www.w3.org/2000/svg" width="57" height="116" viewBox="0 0 57 116">
  <g id="Group_29" data-name="Group 29" transform="translate(-1508 -199)">
    <g id="Group_27" data-name="Group 27" transform="translate(-1 5)">
      <g id="Group_11" data-name="Group 11" transform="translate(1510 193.7)">
        <g id="Rectangle_16" data-name="Rectangle 16" transform="translate(24 81.3)" fill="#f2f2f2" stroke="#4e7259" stroke-width="1">
          <rect width="11" height="35" stroke="none"/>
          <rect x="0.5" y="0.5" width="10" height="34" fill="none"/>
        </g>
        <g id="Group_10" data-name="Group 10" transform="translate(-1 60.164)">
          <g id="Subtraction_2" data-name="Subtraction 2" transform="translate(0 0.136)" fill="#f2f2f2">
            <path d="M 28.5 29.5 C 24.7234992980957 29.5 21.0596809387207 28.72129058837891 17.61031913757324 27.18551063537598 C 14.27560997009277 25.70051956176758 11.28108978271484 23.57526016235352 8.70995044708252 20.8687801361084 C 6.136320114135742 18.15888977050781 4.11545991897583 15.0037202835083 2.703579902648926 11.49096965789795 C 1.302621603012085 8.003999710083008 0.5633493065834045 4.308853149414062 0.5038984417915344 0.5000100135803223 L 1.659189701080322 0.5000100135803223 C 4.660190582275391 4.744744777679443 8.610580444335938 8.270206451416016 13.09786987304688 10.70534992218018 C 15.42520046234131 11.96842956542969 17.89595031738281 12.94186973571777 20.44146919250488 13.59862995147705 C 23.0623607635498 14.27486038208008 25.77363967895508 14.6177396774292 28.5 14.6177396774292 C 31.22641944885254 14.6177396774292 33.93780899047852 14.27486038208008 36.55886077880859 13.59862995147705 C 39.10443115234375 12.94186019897461 41.57529067993164 11.96842002868652 43.90280151367188 10.70534992218018 C 48.39014053344727 8.270077705383301 52.34051513671875 4.744622230529785 55.34146881103516 0.5000013709068298 L 56.4961051940918 0.5000073909759521 C 56.43665313720703 4.309727668762207 55.6973876953125 8.004949569702148 54.29640960693359 11.49098968505859 C 52.88388824462891 15.00520038604736 50.8630485534668 18.16035079956055 48.2900505065918 20.8687801361084 C 45.71866989135742 23.57637023925781 42.72446823120117 25.70159912109375 39.39056015014648 27.18548011779785 C 35.94097900390625 28.72129058837891 32.27687835693359 29.5 28.5 29.5 Z" stroke="none"/>
            <path d="M 28.5 29 C 32.20635986328125 29 35.80204010009766 28.23583030700684 39.18724822998047 26.72868919372559 C 42.46089935302734 25.27161979675293 45.40153121948242 23.18423080444336 47.92755126953125 20.52440071105957 C 50.45689010620117 17.86194038391113 52.44359970092773 14.75990962982178 53.83248138427734 11.30455017089844 C 55.148193359375 8.030645370483398 55.87057876586914 4.568867683410645 55.98412704467773 1.000004649162292 L 55.59911346435547 1.00000274181366 C 52.57302856445312 5.212754249572754 48.62108993530273 8.713626861572266 44.14128112792969 11.14480972290039 C 41.77791976928711 12.42733955383301 39.26884841918945 13.41580963134766 36.68376922607422 14.08277034759521 C 34.02193832397461 14.76953029632568 31.26852989196777 15.1177396774292 28.5 15.1177396774292 C 25.73152923583984 15.1177396774292 22.97821998596191 14.76953029632568 20.31656074523926 14.08277034759521 C 17.73152923583984 13.41582012176514 15.22257041931152 12.42735004425049 12.85937976837158 11.14480972290039 C 8.379629135131836 8.713762283325195 4.427672386169434 5.212870597839355 1.401541113853455 1.000010013580322 L 1.015880346298218 1.000010013580322 C 1.12943172454834 4.568125247955322 1.851815342903137 8.029763221740723 3.167510032653809 11.30449962615967 C 4.555759906768799 14.75846004486084 6.542500019073486 17.86050987243652 9.072449684143066 20.52440071105957 C 11.59821033477783 23.18312072753906 14.53919982910156 25.27057075500488 17.81369018554688 26.72874069213867 C 21.19862937927246 28.23583984375 24.79401969909668 29 28.5 29 M 28.5 30 C 24.65304946899414 30 20.92074012756348 29.20675086975098 17.40694999694824 27.64228057861328 C 14.01210021972656 26.1305103302002 10.96399974822998 23.96743965148926 8.347450256347656 21.21315002441406 C 5.730090141296387 18.45722007751465 3.675149917602539 15.24894046783447 2.239650011062622 11.67743968963623 C 0.7536200284957886 7.978720188140869 -3.552713678800501e-15 4.049870014190674 -3.552713678800501e-15 9.999999747378752e-06 L 1.919250011444092 9.999999747378752e-06 C 4.893799781799316 4.276879787445068 8.841469764709473 7.826630115509033 13.336350440979 10.26589012145996 C 15.62784957885742 11.50951957702637 18.06034088134766 12.46790981292725 20.56637954711914 13.11448001861572 C 23.14648056030273 13.78019046783447 25.81586074829102 14.1177396774292 28.5 14.1177396774292 C 31.18429946899414 14.1177396774292 33.85369110107422 13.78019046783447 36.4339485168457 13.11448001861572 C 38.93999862670898 12.46790981292725 41.37265014648438 11.5095100402832 43.66432189941406 10.26589012145996 C 48.15885925292969 7.826710224151611 52.10686111450195 4.276820182800293 55.0814094543457 -1.77635683940025e-15 L 57 9.999999747378752e-06 C 57 4.05157995223999 56.24621963500977 7.980140209197998 54.76034927368164 11.67743968963623 C 53.32418823242188 15.25045013427734 51.26924896240234 18.45873069763184 48.65254974365234 21.21315002441406 C 46.03567123413086 23.96865081787109 42.98772811889648 26.13171005249023 39.59387969970703 27.64228057861328 C 36.07992172241211 29.20675086975098 32.34745025634766 30 28.5 30 Z" stroke="none" fill="#4e7259"/>
          </g>
        </g>
        <g id="Group_26" data-name="Group 26">
          <g id="Rectangle_14" data-name="Rectangle 14" transform="translate(12 0.3)" fill="#f2f2f2" stroke="#4e7259" stroke-width="1">
            <rect width="30" height="71" rx="12" stroke="none"/>
            <rect x="0.5" y="0.5" width="29" height="70" rx="11.5" fill="none"/>
          </g>
        </g>
        <g id="Rectangle_31" data-name="Rectangle 31" transform="translate(10 116.3) rotate(-90)" fill="#f2f2f2" stroke="#4e7259" stroke-width="1">
          <rect width="11" height="40" stroke="none"/>
          <rect x="0.5" y="0.5" width="10" height="39" fill="none"/>
        </g>
      </g>
      <line id="Line_12" data-name="Line 12" x2="10" transform="translate(1541.5 219.5)" fill="none" stroke="#4e7259" stroke-width="3"/>
      <line id="Line_13" data-name="Line 13" x2="10" transform="translate(1541.5 214.5)" fill="none" stroke="#4e7259" stroke-width="3"/>
      <line id="Line_14" data-name="Line 14" x2="10" transform="translate(1541.5 209.5)" fill="none" stroke="#4e7259" stroke-width="3"/>
      <line id="Line_15" data-name="Line 15" x2="10" transform="translate(1541.5 204.5)" fill="none" stroke="#4e7259" stroke-width="3"/>
      <line id="Line_16" data-name="Line 16" x2="10" transform="translate(1541.5 239.5)" fill="none" stroke="#4e7259" stroke-width="3"/>
      <line id="Line_17" data-name="Line 17" x2="10" transform="translate(1541.5 234.5)" fill="none" stroke="#4e7259" stroke-width="3"/>
      <line id="Line_18" data-name="Line 18" x2="10" transform="translate(1541.5 229.5)" fill="none" stroke="#4e7259" stroke-width="3"/>
      <line id="Line_19" data-name="Line 19" x2="10" transform="translate(1541.5 224.5)" fill="none" stroke="#4e7259" stroke-width="3"/>
      <path id="Path_11" data-name="Path 11" d="M10,0" transform="translate(1541.5 259.5)" fill="#f2f2f2" stroke="#4e7259" stroke-width="3"/>
      <line id="Line_21" data-name="Line 21" x2="10" transform="translate(1541.5 254.5)" fill="none" stroke="#4e7259" stroke-width="3"/>
      <line id="Line_22" data-name="Line 22" x2="10" transform="translate(1541.5 249.5)" fill="none" stroke="#4e7259" stroke-width="3"/>
      <line id="Line_23" data-name="Line 23" x2="10" transform="translate(1541.5 244.5)" fill="none" stroke="#4e7259" stroke-width="3"/>
    </g>
  </g>
</svg>
